<svg width="23" height="20" viewBox="0 0 23 20" fill="none" xmlns="http://www.w3.org/2000/svg">
<g clip-path="url(#clip0_394_452)">
<path d="M1.79157 9.14596C1.79157 9.14596 11.4999 4.92966 14.8669 3.44499C16.1577 2.85118 20.5348 0.950798 20.5348 0.950798C20.5348 0.950798 22.5551 0.119455 22.3867 2.13851C22.3306 2.96994 21.8817 5.87976 21.4327 9.02719C20.7593 13.4811 20.0298 18.3506 20.0298 18.3506C20.0298 18.3506 19.9175 19.7165 18.9636 19.9541C18.0096 20.1916 16.4382 19.1227 16.1577 18.8851C15.9332 18.707 11.9488 16.0346 10.4898 14.7282C10.097 14.3719 9.64804 13.6593 10.5459 12.8279C12.5661 10.8681 14.9792 8.43338 16.4382 6.88937C17.1117 6.17671 17.785 4.51394 14.9792 6.533C10.9949 9.44291 7.06663 12.1746 7.06663 12.1746C7.06663 12.1746 6.16872 12.7684 4.48522 12.234C2.80163 11.6996 0.837513 10.9869 0.837513 10.9869C0.837513 10.9869 -0.509231 10.0961 1.79157 9.14596Z" fill="url(#paint0_radial_394_452)"/>
</g>
<defs>
<radialGradient id="paint0_radial_394_452" cx="0" cy="0" r="1" gradientUnits="userSpaceOnUse" gradientTransform="translate(23.4844 0.00258565) rotate(144.554) scale(17.9024 17.5653)">
<stop stop-color="#FF8BF2"/>
<stop offset="1" stop-color="#A664FA"/>
</radialGradient>
<clipPath id="clip0_394_452">
<rect width="21.9509" height="19.207" fill="white" transform="translate(0.445801 0.78125)"/>
</clipPath>
</defs>
</svg>
