<svg width="24" height="25" viewBox="0 0 24 25" fill="none" xmlns="http://www.w3.org/2000/svg">
<g clip-path="url(#clip0_394_450)">
<path d="M7 10.4363C7 9.72895 7.28099 9.05059 7.78115 8.55043C8.28131 8.05027 8.95967 7.76929 9.667 7.76929H18.333C18.6832 7.76929 19.03 7.83827 19.3536 7.9723C19.6772 8.10633 19.9712 8.30278 20.2189 8.55043C20.4665 8.79809 20.663 9.0921 20.797 9.41567C20.931 9.73925 21 10.0861 21 10.4363V19.1023C21 19.4525 20.931 19.7993 20.797 20.1229C20.663 20.4465 20.4665 20.7405 20.2189 20.9881C19.9712 21.2358 19.6772 21.4322 19.3536 21.5663C19.03 21.7003 18.6832 21.7693 18.333 21.7693H9.667C9.31676 21.7693 8.96996 21.7003 8.64638 21.5663C8.32281 21.4322 8.0288 21.2358 7.78115 20.9881C7.53349 20.7405 7.33704 20.4465 7.20301 20.1229C7.06898 19.7993 7 19.4525 7 19.1023V10.4363Z" stroke="#A765FB" stroke-width="2" stroke-linecap="round" stroke-linejoin="round"/>
<path d="M4.012 17.5063C3.70534 17.3315 3.45027 17.0788 3.27258 16.7738C3.09488 16.4688 3.00085 16.1223 3 15.7693V5.76929C3 4.66929 3.9 3.76929 5 3.76929H15C15.75 3.76929 16.158 4.15429 16.5 4.76929" stroke="#A765FB" stroke-width="2" stroke-linecap="round" stroke-linejoin="round"/>
</g>
<defs>
<clipPath id="clip0_394_450">
<rect width="24" height="24" fill="white" transform="translate(0 0.769287)"/>
</clipPath>
</defs>
</svg>
